<?xml version="1.0" encoding="UTF-8"?>
<!DOCTYPE svg PUBLIC "-//W3C//DTD SVG 1.1//EN" "http://www.w3.org/Graphics/SVG/1.1/DTD/svg11.dtd">
<!-- Creator: CorelDRAW X8 -->
<svg xmlns="http://www.w3.org/2000/svg" xml:space="preserve" width="480.3mm" height="317.294mm" version="1.1" style="shape-rendering:geometricPrecision; text-rendering:geometricPrecision; image-rendering:optimizeQuality; fill-rule:evenodd; clip-rule:evenodd"
viewBox="0 0 3860 2550"
 xmlns:xlink="http://www.w3.org/1999/xlink">
 <defs>
  <style type="text/css">
   <![CDATA[
    .fil0 {fill:#FF0066;fill-rule:nonzero}
   ]]>
  </style>
 </defs>
 <g id="Plan_x0020_1">
  <metadata id="CorelCorpID_0Corel-Layer"/>
  <path class="fil0" d="M0 1156l434 0c-78,-14 -99,-88 -99,-121l0 -560c29,-32 75,-76 129,-76 124,0 115,178 115,245l0 512 335 0c-78,-14 -99,-88 -99,-121l0 -367c0,-65 -14,-118 -37,-161 24,-25 86,-108 166,-108 124,0 115,178 115,245l0 512 335 0c-78,-14 -99,-88 -99,-121l0 -367c0,-215 -153,-303 -281,-303 -132,0 -210,96 -239,136 -54,-94 -153,-136 -241,-136 -95,0 -161,54 -199,97l0 -97 -332 155c83,0 96,64 96,111l0 404c0,33 -21,107 -99,121zm1367 0l434 0c-78,-14 -99,-88 -99,-121l0 -670 -332 155c83,0 96,64 96,111l0 404c0,33 -21,107 -99,121zm54 -1019c0,75 64,137 137,137 74,0 137,-64 137,-137 0,-75 -63,-137 -137,-137 -73,0 -137,62 -137,137zm361 1019l434 0c-79,-14 -99,-88 -99,-121l0 -560c28,-32 75,-76 129,-76 124,0 115,178 115,245l0 512 335 0c-79,-14 -99,-88 -99,-121l0 -367c0,-65 -15,-118 -37,-161 24,-25 86,-108 166,-108 124,0 115,178 115,245l0 512 335 0c-79,-14 -99,-88 -99,-121l0 -367c0,-215 -153,-303 -281,-303 -132,0 -210,96 -239,136 -54,-94 -153,-136 -241,-136 -96,0 -161,54 -199,97l0 -97 -332 155c83,0 96,64 96,111l0 404c0,33 -21,107 -99,121zm1710 26c204,0 368,-182 368,-410 0,-225 -164,-407 -368,-407 -203,0 -367,182 -367,407 0,228 164,410 367,410zm-128 -412c0,-276 70,-395 128,-395 57,0 129,119 129,395 0,276 -72,402 -129,402 -58,0 -128,-126 -128,-402z"/>
  <path class="fil0" d="M450 2044c222,0 401,-142 401,-319 0,-111 -73,-210 -186,-265 7,-94 66,-104 155,-101l110 -138c-192,0 -266,100 -275,234 -59,-28 -130,-45 -205,-45 -220,0 -398,142 -398,315 0,62 22,121 62,172 -62,53 -111,145 -111,234 0,143 71,258 257,258 197,0 338,-97 430,-97 102,0 19,258 -325,258 299,0 522,-139 522,-312 0,-135 -113,-189 -215,-189 -159,0 -331,108 -461,108 -123,0 -144,-87 -144,-125 0,-54 30,-97 56,-125 71,83 192,137 327,137zm-138 -321c0,-213 76,-303 138,-303 63,0 141,90 141,303 0,215 -78,310 -141,310 -62,0 -138,-95 -138,-310zm522 546l472 0c-85,-15 -108,-95 -108,-132l0 -610c32,-36 117,-107 210,-107 54,0 69,28 69,45 0,50 -86,66 -86,156 0,64 50,114 114,114 50,0 94,-33 108,-79 43,-122 -47,-246 -205,-246 -55,0 -111,26 -152,53 142,-144 331,-222 494,-222 265,0 284,276 284,338 0,210 -560,189 -560,496 0,108 83,222 279,222 172,0 267,-76 288,-147 17,71 69,119 166,119l191 0c-85,-15 -108,-90 -108,-132l0 -391c0,-226 -140,-527 -535,-527 -170,0 -388,93 -546,284l-11 12 0 -105 -360 168c90,0 104,69 104,121l0 438c0,37 -23,117 -108,132zm900 -194c0,-196 286,-362 300,-447l0 463c0,102 -82,161 -142,161 -56,0 -158,-31 -158,-177zm611 194l472 0c-85,-15 -108,-95 -108,-132l0 -608c31,-35 82,-83 141,-83 135,0 124,194 124,267l0 556 364 0c-85,-15 -107,-95 -107,-132l0 -398c0,-71 -16,-128 -40,-175 26,-28 94,-118 180,-118 135,0 125,194 125,267l0 556 364 0c-85,-15 -107,-95 -107,-132l0 -398c0,-234 -167,-329 -306,-329 -143,0 -228,104 -259,147 -59,-102 -167,-147 -262,-147 -104,0 -175,58 -217,105l0 -105 -360 168c90,0 104,69 104,121l0 438c0,37 -23,117 -108,132z"/>
 </g>
</svg>
